<svg xmlns="http://www.w3.org/2000/svg" xml:space="preserve" width="63mm" height="63mm" style="shape-rendering:geometricPrecision;text-rendering:geometricPrecision;image-rendering:optimizeQuality;fill-rule:evenodd;clip-rule:evenodd" viewBox="0 0 6300 6300"><defs><style>.fil1{fill:#2b2a29}</style></defs><g id="Vrstva_x0020_1"><path d="M3150 122c1686 0 3054 1356 3054 3028S4836 6178 3150 6178 96 4822 96 3150 1464 122 3150 122z" style="fill:none;stroke:#2b2a29;stroke-width:75"/><path d="M4132 2476c169 0 307 178 307 397s-138 397-307 397c-170 0-307-178-307-397s137-397 307-397zM2168 2476c170 0 307 178 307 397s-137 397-307 397c-169 0-307-178-307-397s138-397 307-397zM1704 4734c935-690 1899-689 2892 2-999-1072-1965-1075-2892-2z" class="fil1"/></g></svg>