<?xml version="1.0" encoding="UTF-8"?>
<!DOCTYPE svg PUBLIC "-//W3C//DTD SVG 1.1//EN" "http://www.w3.org/Graphics/SVG/1.1/DTD/svg11.dtd">
<!-- Creator: CorelDRAW X7 -->
<svg xmlns="http://www.w3.org/2000/svg" xml:space="preserve" width="63mm" height="63mm" version="1.1" style="shape-rendering:geometricPrecision; text-rendering:geometricPrecision; image-rendering:optimizeQuality; fill-rule:evenodd; clip-rule:evenodd"
viewBox="0 0 6300 6300"
 xmlns:xlink="http://www.w3.org/1999/xlink">
 <defs>
  <style type="text/css">
   <![CDATA[
    .str0 {stroke:#2B2A29;stroke-width:75}
    .fil0 {fill:none}
    .fil1 {fill:#2B2A29}
   ]]>
  </style>
 </defs>
 <g id="Vrstva_x0020_1">
  <metadata id="CorelCorpID_0Corel-Layer"/>
  <path class="fil0 str0" d="M3150 122c1686,0 3054,1356 3054,3028 0,1672 -1368,3028 -3054,3028 -1686,0 -3054,-1356 -3054,-3028 0,-1672 1368,-3028 3054,-3028z"/>
  <path class="fil1" d="M4132 2476c169,0 307,178 307,397 0,219 -138,397 -307,397 -170,0 -307,-178 -307,-397 0,-219 137,-397 307,-397z"/>
  <path class="fil1" d="M2168 2476c170,0 307,178 307,397 0,219 -137,397 -307,397 -169,0 -307,-178 -307,-397 0,-219 138,-397 307,-397z"/>
  <path class="fil1" d="M1704 4734c935,-690 1899,-689 2892,2 -999,-1072 -1965,-1075 -2892,-2z"/>
 </g>
</svg>
