<?xml version="1.0" encoding="UTF-8"?>
<!DOCTYPE svg PUBLIC "-//W3C//DTD SVG 1.1//EN" "http://www.w3.org/Graphics/SVG/1.1/DTD/svg11.dtd">
<!-- Creator: CorelDRAW X8 -->
<svg xmlns="http://www.w3.org/2000/svg" xml:space="preserve" width="185mm" height="60mm" version="1.1" style="shape-rendering:geometricPrecision; text-rendering:geometricPrecision; image-rendering:optimizeQuality; fill-rule:evenodd; clip-rule:evenodd"
viewBox="0 0 18500 6000"
 xmlns:xlink="http://www.w3.org/1999/xlink">
 <defs>
  <style type="text/css">
   <![CDATA[
    .fil0 {fill:#29241B}
    .fil1 {fill:#7C6B4C}
    .fil2 {fill:#B30000}
   ]]>
  </style>
 </defs>
 <g id="Vrstva_x0020_1">
  <metadata id="CorelCorpID_0Corel-Layer"/>
  <g id="_2387824764720">
   <path class="fil0" d="M16688 2493l510 -2239c1735,300 941,2584 232,5164 -746,-592 -666,-1795 -742,-2925z"/>
   <path class="fil1" d="M14769 3506l-433 1904c-733,-594 -657,-1787 -731,-2909l435 -1910c732,596 654,1792 729,2915z"/>
   <path class="fil0" d="M5704 2081c-1398,58 -2797,117 -4195,176l-262 11 -16 -130c-65,-9 -154,-9 -227,-3l6 114 -431 5c-49,342 -49,1151 0,1492l431 5 -6 114c73,6 162,6 227,-3l16 -130 262 11c1398,59 2797,118 4195,176 70,1 141,8 210,22 507,99 945,560 1339,873 493,392 967,634 1613,635 440,0 881,1 1321,1l3738 0c95,109 205,208 335,295 -152,5 -292,2 -424,-6 5,0 10,1 15,2 -1662,-3 -3324,-6 -4986,-8 -1690,0 -2252,-1530 -3168,-1530 -1400,-59 -2800,-118 -4200,-177 -21,177 -793,160 -785,5l-332 -4c-163,-67 -162,-1999 0,-2054l332 -4c-8,-155 764,-172 785,5 1400,-59 2800,-118 4200,-177 916,0 1478,-1530 3168,-1530l2177 -3c-4,-3 -8,-6 -12,-9 651,-23 1112,88 1440,292l-975 0c-2,0 -3,0 -5,0l-247 0 -1056 0 0 2 -1321 2c-646,1 -1120,243 -1613,635 -394,313 -832,773 -1339,873 -69,14 -139,21 -210,22z"/>
   <path class="fil0" d="M14114 255c3740,-133 1207,4130 3230,5490 -3740,133 -1207,-4131 -3230,-5490z"/>
   <path class="fil0" d="M11030 255c3740,-133 1207,4130 3230,5490 -3740,133 -1207,-4131 -3230,-5490z"/>
   <path class="fil2" d="M7409 4618c448,356 872,579 1457,580 1115,0 2229,1 3344,1 -233,-323 -338,-739 -391,-1197 -4866,1078 -3044,-985 -6133,-833 -1211,60 -2668,218 -3963,331 1329,56 2658,112 3987,168 705,7 1188,543 1699,950z"/>
  </g>
 </g>
</svg>
