<svg xmlns="http://www.w3.org/2000/svg" xml:space="preserve" width="137mm" height="137mm" style="shape-rendering:geometricPrecision;text-rendering:geometricPrecision;image-rendering:optimizeQuality;fill-rule:evenodd;clip-rule:evenodd" viewBox="0 0 13700 13700">
  <path d="M6901 11931c-758 0-1387-146-1936-367-295-119-1206-588-1398-851 78-116 314-327 430-443 285-285 575-618 220-1001-60-64-226-170-333-170H1185c-274 0-529 256-529 530v2646c0 300 248 529 609 529 394 0 722-631 1085-873 139 93 276 220 415 325 1079 809 2485 1368 3845 1368 1106 0 1686-79 2677-446 2046-757 3681-2666 4161-4783 37-165 121-510 121-672 0-1013-1382-1191-1662-286-80 258-89 550-266 1084-193 583-477 1050-850 1531-269 347-388 420-668 681-736 685-2102 1198-3222 1198zM206 6348c68 154 153 227 271 337 479 359 1165 107 1318-443 219-789 229-1220 695-2003 1430-2401 4563-3193 6983-1734 140 85 581 368 656 482-78 116-314 327-430 443-464 464-533 1171 166 1171h2646c274 0 529-256 529-530V1425c0-290-298-529-476-529-422 0-431 100-721 390-126 126-370 399-496 483-285-222-552-428-852-630C9616 550 8253 76 7086 76c-1744 0-3070 380-4445 1455-435 339-830 732-1157 1172-318 427-351 491-615 946-285 491-494 1147-631 1698-84 333-176 675-32 1001z" style="fill:#29241b"/>
</svg>
