<svg xmlns="http://www.w3.org/2000/svg" xml:space="preserve" width="149mm" height="169mm" style="shape-rendering:geometricPrecision;text-rendering:geometricPrecision;image-rendering:optimizeQuality;fill-rule:evenodd;clip-rule:evenodd" viewBox="0 0 14900 16900">
  <path d="M5320 5862c0 2362 1222 2463 2151 3917 604 946 635 2109-28 3003-292 392-598 737-888 1123-294 391-530 805-664 1347-415 1687 396 1805 537 1278 46-169 57-292 106-459 572-1970 4485-3099 2632-6823-195-391-478-757-768-1067-295-314-617-594-871-928-507-667-549-1033-549-1744 0-1885 2117-2278 2117-4727 0-169-27-435-90-545-83-142-270-189-410-99-162 105-143 231-191 446-224 999-717 1343-1311 1900-1008 942-1773 1681-1773 3378zm-1141 5092c-670-2060-2974-2103-2365-4153 173-582 1145-1361 1546-1947 468-687 728-2132 161-2132-522 0-147 539-820 1262-358 385-752 551-1128 882-315 277-787 674-1009 1002-244 361-500 917-500 1511 0 738-13 1114 381 1771 455 760 1038 1110 1550 1624 1083 1087 637 2109-370 3105-526 520-755 781-1002 1609-89 301-237 1310 252 1310 331 0 420-899 838-1315 534-531 1155-871 1746-1463 822-822 1076-1970 720-3066zm6800-4937c-268 445-438 949-438 1644 0 2029 1699 2427 2385 3577 652 1092-155 2080-912 2835-1195 1191-1177 2725-626 2725 500 0 86-853 1209-1649 978-693 1971-1369 2189-2679 239-1441-401-2364-1395-3284-282-260-756-575-968-972-376-704-270-1290 159-1864 417-556 1019-1071 1362-1637 373-619 372-945 372-1603 0-462-503-540-622-128-224 774-419 1049-1107 1504-477 315-1326 1062-1608 1531z" style="fill:#29241b"/>
</svg>
