<svg xmlns="http://www.w3.org/2000/svg" xml:space="preserve" width="155mm" height="117mm" style="shape-rendering:geometricPrecision;text-rendering:geometricPrecision;image-rendering:optimizeQuality;fill-rule:evenodd;clip-rule:evenodd" viewBox="0 0 15500 11700">
  <path d="M762 4928c90-109 22-76 152 21 376 281 971 565 1617 1092 947 771 1812 1605 2547 2585 324 432 605 840 884 1306 121 201 427 833 565 934 0-941-193-1833-482-2689-813-2409-3036-3653-5859-3653 0 2867 913 5099 3477 6381 569 284 1642 652 2461 652-60-256-316-806-442-1057-1000-1984-2263-3631-4030-4963-303-229-561-436-890-609zm6918 6629c720-16 2476-797 2987-1106 985-595 1792-1146 2540-2072 1291-1600 2083-3492 2083-5700 0-221 135-2536-230-2536-515 0-1335 217-1743 333-625 177-1013 322-1577 556-943 391-1819 1056-2489 1719-1569 1552-2263 4059-2263 6212 0 724 158 1459 173 2133l1692-4131c355-705 882-1553 1347-2170 1592-2111 2496-2987 4607-4444 70-49 130-95 195-151 139 100 67 8-298 279-793 591-1491 1197-2196 1897-355 404-740 813-1073 1233-1580 1992-2872 4502-3525 6968-67 256-208 722-230 980z" style="fill:#29241b"/>
</svg>
