<svg xmlns="http://www.w3.org/2000/svg" xml:space="preserve" width="210mm" height="297mm" style="shape-rendering:geometricPrecision;text-rendering:geometricPrecision;image-rendering:optimizeQuality;fill-rule:evenodd;clip-rule:evenodd" viewBox="0 0 21000 29700">
  <path d="M2910 0c-239 0-437 187-451 426l-176 4815c-59 1644 117 3318 796 4830 309 718 707 1401 1175 2026 1498 1864 5094 3406 5094 3406v11406l-6254 2188c-29 11-49 39-49 71 0 38 27 69 64 75 5623 617 8911 602 14813 0 37-6 64-37 64-75 0-32-20-60-50-71l-5857-2056c-289 153-612 232-939 232-108 0-217-9-324-26l867-338V15503h-1s3949-1439 5417-3641c358-566 665-1168 911-1791 631-1498 778-3142 704-4771l-239-4874c-8-238-203-426-440-426H2910z" style="fill:#29241b"/>
</svg>
