<svg xmlns="http://www.w3.org/2000/svg" xml:space="preserve" width="122mm" height="77mm" style="shape-rendering:geometricPrecision;text-rendering:geometricPrecision;image-rendering:optimizeQuality;fill-rule:evenodd;clip-rule:evenodd" viewBox="0 0 12200 7700">
  <path d="m470 90 5637 4675L11732 74 470 90zm11649 359c-16 3-3019 2408-3252 2691-241 232-298 404-103 652l3354 3413 1-6756zM173 7138c1016-1029 2044-2054 3071-3071 409-476 315-731-137-1134C2159 2087 1083 1262 95 449L81 7208l92-70zm276 488h11317c-23-76-3063-3078-3396-3410-442-444-337-370-558-216-401 335-886 783-1306 1078-206 144-333 417-630 154-414-368-874-726-1301-1083-435-361-303-362-745 82-295 296-3359 3333-3381 3395z" style="fill:#7c6b4c"/>
</svg>
