<svg xmlns="http://www.w3.org/2000/svg" xml:space="preserve" width="163mm" height="163mm" style="shape-rendering:geometricPrecision;text-rendering:geometricPrecision;image-rendering:optimizeQuality;fill-rule:evenodd;clip-rule:evenodd" viewBox="0 0 16300 16300">
  <path d="M12239 9959c-365 0-695 275-1081 471-350 177-1537 869-1706 869-423 0-474-139-749-414L5440 7622c-348-348-619-556-290-1119l704-1307c483-979 713-877 232-1678L4573 974C3936-94 4002 72 2599 671c-391 167-744 320-1145 478-458 182-639 342-868 755-465 838-460 1771-274 2696 236 1170 862 2376 1492 3376 304 483 1001 1473 1361 1885 959 1097 2211 2224 3263 3264 484 432 1092 815 1623 1199l759 475c483 291 1114 554 1630 805 957 377 1663 536 2681 493 499-21 909-177 1259-364 425-227 597-424 767-855 159-400 313-769 478-1145 726-1659 866-1322-1289-2590-497-291-985-600-1482-890-253-148-525-294-615-294z" style="fill:#7c6b4c"/>
</svg>
